HIERARCHY
ROOT Hips
{
	OFFSET 0.000000 0.000000 0.000000
	CHANNELS 6 Xposition Yposition Zposition Xrotation Yrotation Zrotation
	JOINT LeftUpLeg_virtual
	{
		OFFSET 0.000000 0.000000 0.000000
		CHANNELS 3 Xrotation Yrotation Zrotation
		JOINT LeftUpLeg
		{
			OFFSET 15.427100 -6.655098 0.678600
			CHANNELS 3 Xrotation Yrotation Zrotation
			JOINT LeftLeg
			{
				OFFSET 4.081073 -39.591068 13.024000
				CHANNELS 3 Xrotation Yrotation Zrotation
				JOINT LeftFoot
				{
					OFFSET -4.081074 -37.707932 -15.979700
					CHANNELS 3 Xrotation Yrotation Zrotation
					JOINT LeftToeBase
					{
						OFFSET 5.346399 -15.068900 20.645000
						CHANNELS 3 Xrotation Yrotation Zrotation
						JOINT LeftToe_End
						{
							OFFSET 2.754700 0.931300 11.300900
							CHANNELS 3 Xrotation Yrotation Zrotation
							End Site
							{
								OFFSET 0 0 0
							}
						}
					}
				}
			}
		}
	}
	JOINT RightUpLeg_virtual
	{
		OFFSET 0.000000 0.000000 0.000000
		CHANNELS 3 Xrotation Yrotation Zrotation
		JOINT RightUpLeg
		{
			OFFSET -15.569500 -6.655098 0.678600
			CHANNELS 3 Xrotation Yrotation Zrotation
			JOINT RightLeg
			{
				OFFSET -4.081825 -39.591045 13.023800
				CHANNELS 3 Xrotation Yrotation Zrotation
				JOINT RightFoot
				{
					OFFSET 4.081824 -37.707954 -15.979600
					CHANNELS 3 Xrotation Yrotation Zrotation
					JOINT RightToeBase
					{
						OFFSET -5.346400 -15.068900 20.645000
						CHANNELS 3 Xrotation Yrotation Zrotation
						JOINT RightToe_End
						{
							OFFSET -2.754700 0.931300 11.300900
							CHANNELS 3 Xrotation Yrotation Zrotation
							End Site
							{
								OFFSET 0 0 0
							}
						}
					}
				}
			}
		}
	}
	JOINT Spine_virtual
	{
		OFFSET 0.000000 0.000000 0.000000
		CHANNELS 3 Xrotation Yrotation Zrotation
		JOINT Spine
		{
			OFFSET -0.279200 12.230698 -2.892100
			CHANNELS 3 Xrotation Yrotation Zrotation
			JOINT Spine1
			{
				OFFSET -0.232667 10.192268 -1.242267
				CHANNELS 3 Xrotation Yrotation Zrotation
				JOINT Spine1_split
				{
					OFFSET -0.232667 10.192268 -1.242267
					CHANNELS 3 Xrotation Yrotation Zrotation
					JOINT Spine2
					{
						OFFSET -0.232667 10.192268 -1.242267
						CHANNELS 3 Xrotation Yrotation Zrotation
						JOINT Neck_virtual
						{
							OFFSET 0.000000 0.000000 0.000000
							CHANNELS 3 Xrotation Yrotation Zrotation
							JOINT Neck
							{
								OFFSET -0.418800 17.814194 8.416900
								CHANNELS 3 Xrotation Yrotation Zrotation
								JOINT Head
								{
									OFFSET 0.000000 7.031097 3.806800
									CHANNELS 3 Xrotation Yrotation Zrotation
									JOINT HeadTop_End
									{
										OFFSET 0.000000 24.646606 12.978600
										CHANNELS 3 Xrotation Yrotation Zrotation
										End Site
										{
											OFFSET 0 0 0
										}
									}
								}
							}
						}
						JOINT LeftShoulder_virtual
						{
							OFFSET 0.000000 0.000000 0.000000
							CHANNELS 3 Xrotation Yrotation Zrotation
							JOINT LeftShoulder
							{
								OFFSET 8.476499 7.247704 -3.868750
								CHANNELS 3 Xrotation Yrotation Zrotation
								JOINT LeftShoulder_split
								{
									OFFSET 8.476499 7.247704 -3.868750
									CHANNELS 3 Xrotation Yrotation Zrotation
									JOINT LeftArm
									{
										OFFSET 9.308998 -2.777710 0.208600
										CHANNELS 3 Xrotation Yrotation Zrotation
										JOINT LeftForeArm
										{
											OFFSET 29.972298 0.000000 0.000000
											CHANNELS 3 Xrotation Yrotation Zrotation
											JOINT LeftHand
											{
												OFFSET 26.026505 0.000000 0.000000
												CHANNELS 3 Xrotation Yrotation Zrotation
												End Site
												{
													OFFSET 0 0 0
												}
											}
										}
									}
								}
							}
						}
						JOINT RightShoulder_virtual
						{
							OFFSET 0.000000 0.000000 0.000000
							CHANNELS 3 Xrotation Yrotation Zrotation
							JOINT RightShoulder
							{
								OFFSET -7.570500 7.247704 -3.868750
								CHANNELS 3 Xrotation Yrotation Zrotation
								JOINT RightShoulder_split
								{
									OFFSET -7.570500 7.247704 -3.868750
									CHANNELS 3 Xrotation Yrotation Zrotation
									JOINT RightArm
									{
										OFFSET -9.308998 -2.777710 0.208500
										CHANNELS 3 Xrotation Yrotation Zrotation
										JOINT RightForeArm
										{
											OFFSET -29.972300 0.000000 0.000000
											CHANNELS 3 Xrotation Yrotation Zrotation
											JOINT RightHand
											{
												OFFSET -26.026505 0.000000 0.000000
												CHANNELS 3 Xrotation Yrotation Zrotation
												End Site
												{
													OFFSET 0 0 0
												}
											}
										}
									}
								}
							}
						}
					}
				}
			}
		}
	}
}
MOTION
Frames: 7
Frame Time: 0.03333333
8.145529 87.119003 114.898689 0.000000 0.000000 0.000000 23.823042 24.059352 -8.581410 -42.275575 6.579108 14.607143 45.557392 7.628310 -6.237867 -5.043856 30.385408 -5.435549 -2.346837 0.211615 -5.138252 0.000000 0.000000 0.000000 23.823042 24.059352 -8.581410 -52.283380 -4.046607 -5.701701 36.574256 -6.815101 -4.881252 -4.499598 -6.622843 7.050861 -0.776290 0.000001 -0.000002 0.000000 0.000000 0.000000 23.823042 24.059352 -8.581410 11.234981 -0.257013 3.207120 6.689000 -2.739667 0.561831 0.000000 0.000000 0.000000 0.000000 0.000000 0.000000 6.767280 -2.647712 0.806086 -7.061415 0.651888 3.401816 -21.911030 3.055704 1.503040 0.000000 0.000000 0.000000 6.767280 -2.647712 0.806086 1.518825 -7.209065 -6.123054 0.000000 0.000000 0.000000 -29.320899 -21.016005 -35.448467 -0.000002 -29.544946 0.000019 0.000000 0.000000 0.000000 6.767280 -2.647712 0.806086 2.382972 6.831227 2.707436 0.000000 0.000000 0.000000 -16.474821 -9.604017 53.071615 0.000017 62.536597 -0.000012 0.000000 0.000000 0.000000 
8.644105 90.298279 118.500717 0.000000 0.000000 0.000000 24.176170 25.712119 -9.041950 -43.396655 6.824611 12.781170 37.752498 8.576814 -6.220103 1.968567 30.832335 -8.242091 -2.025822 0.167813 -4.634732 0.000000 0.000000 0.000000 24.176170 25.712119 -9.041950 -45.732925 -4.924662 -5.147807 30.945992 -6.457867 -4.789586 -5.412324 -8.545236 6.594529 -0.776293 0.000000 -0.000002 0.000000 0.000000 0.000000 24.176170 25.712119 -9.041950 10.734435 0.720828 3.007554 6.787120 -2.287292 0.523223 0.000000 0.000000 0.000000 0.000000 0.000000 0.000000 6.856943 -2.249063 0.744096 -6.145211 0.029306 2.502974 -24.587535 -0.208405 0.944949 0.000000 0.000000 0.000000 6.856943 -2.249063 0.744096 1.618575 -6.835510 -6.264181 0.000000 0.000000 0.000000 -26.441476 -21.915697 -35.489642 0.000000 -27.829488 0.000000 0.000000 0.000000 0.000000 6.856943 -2.249063 0.744096 2.446332 6.435829 2.980741 0.000000 0.000000 0.000000 -17.981417 -11.167552 54.420594 0.000002 66.639533 -0.000019 0.000000 0.000000 0.000000 
9.190533 92.265442 121.701973 0.000000 0.000000 0.000000 24.310494 27.655484 -9.544212 -44.841814 7.042775 11.453528 31.801658 8.635173 -6.016154 7.901410 30.650897 -12.750608 -5.374068 -0.093312 1.168581 0.000000 0.000000 0.000000 24.310494 27.655484 -9.544212 -40.451929 -6.261432 -4.780530 27.197827 -5.955981 -4.738675 -6.740367 -10.263918 6.144127 -0.776291 -0.000001 -0.000001 0.000000 0.000000 0.000000 24.310494 27.655484 -9.544212 10.184668 1.664693 2.781152 6.872422 -1.748161 0.478844 0.000000 0.000000 0.000000 0.000000 0.000000 0.000000 6.935684 -1.762653 0.687618 -5.731396 -0.678800 1.445523 -27.121903 -3.844588 0.191410 0.000000 0.000000 0.000000 6.935684 -1.762653 0.687618 1.650702 -6.391018 -6.371708 0.000000 0.000000 0.000000 -23.539752 -22.127407 -35.245453 -0.000002 -27.532740 0.000000 0.000000 0.000000 0.000000 6.935684 -1.762653 0.687618 2.521247 6.103428 3.214543 0.000000 0.000000 0.000000 -19.050595 -12.399788 55.928625 0.000027 71.237432 -0.000018 0.000000 0.000000 0.000000 
9.485292 92.666870 124.727234 0.000000 0.000000 0.000000 24.298936 29.774809 -10.091556 -47.047992 7.139689 10.684443 29.105133 8.651282 -5.970982 8.711111 30.637312 -14.095939 -2.535011 -0.030741 1.109387 0.000000 0.000000 0.000000 24.298936 29.774809 -10.091556 -36.895555 -7.298306 -4.086493 26.660761 -5.417264 -4.776695 -9.382523 -12.564675 5.584082 -0.776294 -0.000004 -0.000001 0.000000 0.000000 0.000000 24.298936 29.774809 -10.091556 9.601459 2.442993 2.657864 6.938810 -1.200943 0.394682 0.000000 0.000000 0.000000 0.000000 0.000000 0.000000 6.995893 -1.243766 0.556798 -5.860921 -1.216351 0.345769 -28.865298 -7.301565 -0.714625 0.000000 0.000000 0.000000 6.995893 -1.243766 0.556798 1.600668 -5.900230 -6.378131 0.000000 0.000000 0.000000 -20.631013 -20.820184 -34.468430 -0.000001 -31.483081 -0.000000 0.000000 0.000000 0.000000 6.995893 -1.243766 0.556798 2.569319 6.276827 3.284424 0.000000 0.000000 0.000000 -19.444150 -12.478126 57.433053 -0.000094 75.730187 0.000123 0.000000 0.000000 0.000000 
9.652338 90.832222 127.571785 0.000000 0.000000 0.000000 24.239605 31.915322 -10.623936 -50.825415 7.167227 10.136103 30.968078 8.611408 -5.992554 9.053024 30.591536 -14.581989 -3.516779 -0.061633 1.564815 0.000000 0.000000 0.000000 24.239605 31.915322 -10.623936 -35.941190 -8.884579 -3.609556 31.096625 -4.636132 -4.835514 -14.531506 -14.650435 4.795890 -0.776293 0.000004 0.000001 0.000000 0.000000 0.000000 24.239605 31.915322 -10.623936 8.968147 3.234223 2.855387 6.979439 -0.616616 0.084972 0.000000 0.000000 0.000000 0.000000 0.000000 0.000000 7.032313 -0.730687 0.218839 -6.150268 -2.077889 -0.648186 -30.226203 -9.985578 -1.730393 0.000000 0.000000 0.000000 7.032313 -0.730687 0.218839 1.483858 -5.195678 -6.244721 0.000000 0.000000 0.000000 -18.327605 -18.394220 -33.141215 0.000000 -37.452065 -0.000013 0.000000 0.000000 0.000000 7.032313 -0.730687 0.218839 2.615252 7.096801 3.014256 0.000000 0.000000 0.000000 -19.595946 -12.189671 58.969203 -0.000050 79.094540 0.000069 0.000000 0.000000 0.000000 
9.836264 87.756851 130.340988 0.000000 0.000000 0.000000 24.132667 33.933630 -11.182916 -55.419359 7.611727 8.496622 34.389651 9.946604 -5.255241 8.970490 29.453104 -9.517491 -5.401790 -0.072965 1.702642 0.000000 0.000000 0.000000 24.132667 33.933630 -11.182916 -35.818035 -11.300680 -3.392018 37.609279 -3.949860 -4.843948 -21.070212 -15.766472 3.831684 -0.776295 0.000003 0.000002 0.000000 0.000000 0.000000 24.132667 33.933630 -11.182916 8.289767 4.114525 3.218651 6.995784 -0.036541 -0.580342 0.000000 0.000000 0.000000 0.000000 0.000000 0.000000 7.044667 -0.308798 -0.427656 -6.326359 -3.009419 -1.298519 -30.881792 -12.267151 -2.331852 0.000000 0.000000 0.000000 7.044667 -0.308798 -0.427656 1.121521 -3.625862 -4.936498 0.000000 0.000000 0.000000 -17.082189 -15.665085 -32.510741 0.000009 -42.806114 0.000000 0.000000 0.000000 0.000000 7.044667 -0.308798 -0.427656 2.650947 8.620947 2.214263 0.000000 0.000000 0.000000 -19.495528 -12.310839 61.064432 0.000222 82.024445 -0.000223 0.000000 0.000000 0.000000 
10.304665 85.098267 133.058212 0.000000 0.000000 0.000000 23.856416 35.589889 -11.962438 -58.748971 8.161545 6.971201 36.571719 10.623429 -4.591051 9.433344 27.978355 -0.570618 -6.657142 -0.000651 0.048447 0.000000 0.000000 0.000000 23.856416 35.589889 -11.962438 -34.322886 -14.213036 -3.087997 42.200027 -4.059811 -4.781536 -26.796304 -15.305829 3.481516 -0.776288 -0.000003 -0.000003 0.000000 0.000000 0.000000 23.856416 35.589889 -11.962438 7.639694 5.010191 3.068872 6.864478 0.543944 -1.180450 0.000000 0.000000 0.000000 0.000000 0.000000 0.000000 6.926733 0.144407 -0.978549 -6.316762 -3.773513 -1.724568 -30.702400 -14.630270 -2.109198 0.000000 0.000000 0.000000 6.926733 0.144407 -0.978549 0.841883 -1.975003 -3.007320 0.000000 0.000000 0.000000 -17.627400 -13.318445 -32.689176 -0.000007 -47.550711 0.000007 0.000000 0.000000 0.000000 6.926733 0.144407 -0.978549 2.374396 10.253665 0.897354 0.000000 0.000000 0.000000 -18.836694 -12.716479 63.971128 -0.000189 83.769825 0.000217 0.000000 0.000000 0.000000 
